<mxfile host="app.diagrams.net" agent="Mozilla/5.0 (Windows NT 10.0; Win64; x64; rv:142.0) Gecko/20100101 Firefox/142.0" version="28.2.5">
  <diagram name="Page-1" id="yM80Ie2hLMJN2DCshWj5">
    <mxGraphModel dx="983" dy="537" grid="1" gridSize="10" guides="1" tooltips="1" connect="1" arrows="1" fold="1" page="1" pageScale="1" pageWidth="827" pageHeight="1169" math="0" shadow="0">
      <root>
        <mxCell id="0" />
        <mxCell id="1" parent="0" />
        <mxCell id="lDIiMsfh9iVDVaQB23Rw-1" value="&lt;div&gt;Technicien&lt;/div&gt;" style="shape=umlActor;verticalLabelPosition=bottom;verticalAlign=top;html=1;" vertex="1" parent="1">
          <mxGeometry x="660" y="370" width="30" height="60" as="geometry" />
        </mxCell>
        <mxCell id="lDIiMsfh9iVDVaQB23Rw-2" value="&lt;div&gt;Client&lt;/div&gt;" style="shape=umlActor;verticalLabelPosition=bottom;verticalAlign=top;html=1;" vertex="1" parent="1">
          <mxGeometry x="80" y="212.5" width="30" height="60" as="geometry" />
        </mxCell>
        <mxCell id="lDIiMsfh9iVDVaQB23Rw-7" value="Système ticketing" style="shape=umlFrame;whiteSpace=wrap;html=1;pointerEvents=0;width=120;height=30;" vertex="1" parent="1">
          <mxGeometry x="240" y="150" width="330" height="400" as="geometry" />
        </mxCell>
        <mxCell id="lDIiMsfh9iVDVaQB23Rw-8" value="Créer un ticket" style="ellipse;whiteSpace=wrap;html=1;" vertex="1" parent="1">
          <mxGeometry x="270" y="200" width="100" height="50" as="geometry" />
        </mxCell>
        <mxCell id="lDIiMsfh9iVDVaQB23Rw-12" value="Gestion des demande" style="ellipse;whiteSpace=wrap;html=1;" vertex="1" parent="1">
          <mxGeometry x="425" y="460" width="100" height="50" as="geometry" />
        </mxCell>
        <mxCell id="lDIiMsfh9iVDVaQB23Rw-15" value="Consulter la réponse à un ticket" style="ellipse;whiteSpace=wrap;html=1;" vertex="1" parent="1">
          <mxGeometry x="265" y="260" width="110" height="70" as="geometry" />
        </mxCell>
        <mxCell id="lDIiMsfh9iVDVaQB23Rw-16" value="Assigner un technicien" style="ellipse;whiteSpace=wrap;html=1;" vertex="1" parent="1">
          <mxGeometry x="422.5" y="162.5" width="100" height="50" as="geometry" />
        </mxCell>
        <mxCell id="lDIiMsfh9iVDVaQB23Rw-17" value="Contacter le client" style="ellipse;whiteSpace=wrap;html=1;" vertex="1" parent="1">
          <mxGeometry x="422.5" y="227.5" width="100" height="60" as="geometry" />
        </mxCell>
        <mxCell id="lDIiMsfh9iVDVaQB23Rw-18" value="" style="endArrow=classic;html=1;rounded=0;entryX=-0.02;entryY=0.632;entryDx=0;entryDy=0;entryPerimeter=0;" edge="1" parent="1" source="lDIiMsfh9iVDVaQB23Rw-2" target="lDIiMsfh9iVDVaQB23Rw-8">
          <mxGeometry width="50" height="50" relative="1" as="geometry">
            <mxPoint x="110" y="320" as="sourcePoint" />
            <mxPoint x="170" y="270" as="targetPoint" />
          </mxGeometry>
        </mxCell>
        <mxCell id="lDIiMsfh9iVDVaQB23Rw-19" value="" style="endArrow=classic;html=1;rounded=0;entryX=0;entryY=0.5;entryDx=0;entryDy=0;" edge="1" parent="1" source="lDIiMsfh9iVDVaQB23Rw-2" target="lDIiMsfh9iVDVaQB23Rw-15">
          <mxGeometry width="50" height="50" relative="1" as="geometry">
            <mxPoint x="120" y="330" as="sourcePoint" />
            <mxPoint x="245" y="302" as="targetPoint" />
          </mxGeometry>
        </mxCell>
        <mxCell id="lDIiMsfh9iVDVaQB23Rw-20" value="&lt;div&gt;Gestionnaire&amp;nbsp;&lt;/div&gt;&lt;div&gt;support&amp;nbsp;&lt;/div&gt;&lt;div&gt;technique&lt;/div&gt;" style="shape=umlActor;verticalLabelPosition=bottom;verticalAlign=top;html=1;" vertex="1" parent="1">
          <mxGeometry x="660" y="180" width="30" height="60" as="geometry" />
        </mxCell>
        <mxCell id="lDIiMsfh9iVDVaQB23Rw-25" value="" style="endArrow=classic;html=1;rounded=0;entryX=1;entryY=0.5;entryDx=0;entryDy=0;" edge="1" parent="1" source="lDIiMsfh9iVDVaQB23Rw-20" target="lDIiMsfh9iVDVaQB23Rw-16">
          <mxGeometry width="50" height="50" relative="1" as="geometry">
            <mxPoint x="660" y="210" as="sourcePoint" />
            <mxPoint x="738.5" y="200" as="targetPoint" />
          </mxGeometry>
        </mxCell>
        <mxCell id="lDIiMsfh9iVDVaQB23Rw-26" value="" style="endArrow=classic;html=1;rounded=0;entryX=0.989;entryY=0.274;entryDx=0;entryDy=0;entryPerimeter=0;" edge="1" parent="1" source="lDIiMsfh9iVDVaQB23Rw-20" target="lDIiMsfh9iVDVaQB23Rw-17">
          <mxGeometry width="50" height="50" relative="1" as="geometry">
            <mxPoint x="665" y="240" as="sourcePoint" />
            <mxPoint x="580" y="240" as="targetPoint" />
          </mxGeometry>
        </mxCell>
        <mxCell id="lDIiMsfh9iVDVaQB23Rw-27" value="" style="endArrow=classic;html=1;rounded=0;entryX=1.01;entryY=0.422;entryDx=0;entryDy=0;entryPerimeter=0;" edge="1" parent="1" source="lDIiMsfh9iVDVaQB23Rw-1" target="lDIiMsfh9iVDVaQB23Rw-12">
          <mxGeometry width="50" height="50" relative="1" as="geometry">
            <mxPoint x="746" y="360" as="sourcePoint" />
            <mxPoint x="660" y="391" as="targetPoint" />
          </mxGeometry>
        </mxCell>
        <mxCell id="lDIiMsfh9iVDVaQB23Rw-28" value="Consulter les techniciens disponibles" style="ellipse;whiteSpace=wrap;html=1;" vertex="1" parent="1">
          <mxGeometry x="420" y="297.5" width="105" height="60" as="geometry" />
        </mxCell>
        <mxCell id="lDIiMsfh9iVDVaQB23Rw-29" value="" style="endArrow=classic;html=1;rounded=0;entryX=0.979;entryY=0.291;entryDx=0;entryDy=0;entryPerimeter=0;" edge="1" parent="1" source="lDIiMsfh9iVDVaQB23Rw-20" target="lDIiMsfh9iVDVaQB23Rw-28">
          <mxGeometry width="50" height="50" relative="1" as="geometry">
            <mxPoint x="736" y="250" as="sourcePoint" />
            <mxPoint x="630" y="281" as="targetPoint" />
          </mxGeometry>
        </mxCell>
        <mxCell id="lDIiMsfh9iVDVaQB23Rw-30" value="&lt;div&gt;Admin&lt;/div&gt;&lt;div&gt;&lt;br&gt;&lt;/div&gt;" style="shape=umlActor;verticalLabelPosition=bottom;verticalAlign=top;html=1;" vertex="1" parent="1">
          <mxGeometry x="80" y="370" width="30" height="60" as="geometry" />
        </mxCell>
        <mxCell id="lDIiMsfh9iVDVaQB23Rw-32" value="Ajouter un gestionnaire" style="ellipse;whiteSpace=wrap;html=1;" vertex="1" parent="1">
          <mxGeometry x="270" y="370" width="100" height="50" as="geometry" />
        </mxCell>
        <mxCell id="lDIiMsfh9iVDVaQB23Rw-33" value="Ajouter un technicien" style="ellipse;whiteSpace=wrap;html=1;" vertex="1" parent="1">
          <mxGeometry x="270" y="430" width="100" height="50" as="geometry" />
        </mxCell>
        <mxCell id="lDIiMsfh9iVDVaQB23Rw-35" value="" style="endArrow=classic;html=1;rounded=0;entryX=0;entryY=0.69;entryDx=0;entryDy=0;entryPerimeter=0;" edge="1" parent="1" source="lDIiMsfh9iVDVaQB23Rw-30" target="lDIiMsfh9iVDVaQB23Rw-32">
          <mxGeometry width="50" height="50" relative="1" as="geometry">
            <mxPoint x="115" y="409.5" as="sourcePoint" />
            <mxPoint x="270" y="457.5" as="targetPoint" />
          </mxGeometry>
        </mxCell>
        <mxCell id="lDIiMsfh9iVDVaQB23Rw-36" value="" style="endArrow=classic;html=1;rounded=0;entryX=0;entryY=0.4;entryDx=0;entryDy=0;entryPerimeter=0;" edge="1" parent="1" source="lDIiMsfh9iVDVaQB23Rw-30" target="lDIiMsfh9iVDVaQB23Rw-33">
          <mxGeometry width="50" height="50" relative="1" as="geometry">
            <mxPoint x="110" y="425" as="sourcePoint" />
            <mxPoint x="270" y="473" as="targetPoint" />
          </mxGeometry>
        </mxCell>
        <mxCell id="lDIiMsfh9iVDVaQB23Rw-38" value="Ajouter un client" style="ellipse;whiteSpace=wrap;html=1;" vertex="1" parent="1">
          <mxGeometry x="270" y="490" width="100" height="50" as="geometry" />
        </mxCell>
        <mxCell id="lDIiMsfh9iVDVaQB23Rw-39" value="" style="endArrow=classic;html=1;rounded=0;entryX=0;entryY=0.4;entryDx=0;entryDy=0;entryPerimeter=0;" edge="1" parent="1" source="lDIiMsfh9iVDVaQB23Rw-30" target="lDIiMsfh9iVDVaQB23Rw-38">
          <mxGeometry width="50" height="50" relative="1" as="geometry">
            <mxPoint x="90" y="470" as="sourcePoint" />
            <mxPoint x="250" y="516" as="targetPoint" />
          </mxGeometry>
        </mxCell>
        <mxCell id="lDIiMsfh9iVDVaQB23Rw-40" value="Consulter les demandes" style="ellipse;whiteSpace=wrap;html=1;" vertex="1" parent="1">
          <mxGeometry x="425" y="400" width="100" height="50" as="geometry" />
        </mxCell>
        <mxCell id="lDIiMsfh9iVDVaQB23Rw-41" value="" style="endArrow=classic;html=1;rounded=0;entryX=0.95;entryY=0.2;entryDx=0;entryDy=0;entryPerimeter=0;" edge="1" parent="1" source="lDIiMsfh9iVDVaQB23Rw-1" target="lDIiMsfh9iVDVaQB23Rw-40">
          <mxGeometry width="50" height="50" relative="1" as="geometry">
            <mxPoint x="714" y="450" as="sourcePoint" />
            <mxPoint x="580" y="523" as="targetPoint" />
          </mxGeometry>
        </mxCell>
        <mxCell id="lDIiMsfh9iVDVaQB23Rw-45" value="Extends" style="endArrow=block;endSize=16;endFill=0;html=1;rounded=0;" edge="1" parent="1" source="lDIiMsfh9iVDVaQB23Rw-1" target="lDIiMsfh9iVDVaQB23Rw-20">
          <mxGeometry x="0.1045" y="-30" width="160" relative="1" as="geometry">
            <mxPoint x="760" y="330" as="sourcePoint" />
            <mxPoint x="920" y="330" as="targetPoint" />
            <Array as="points">
              <mxPoint x="770" y="400" />
              <mxPoint x="770" y="210" />
            </Array>
            <mxPoint as="offset" />
          </mxGeometry>
        </mxCell>
      </root>
    </mxGraphModel>
  </diagram>
</mxfile>
